<mxfile host="app.diagrams.net" modified="2024-03-22T06:15:57.351Z" agent="Mozilla/5.0 (Windows NT 10.0; Win64; x64) AppleWebKit/537.36 (KHTML, like Gecko) Chrome/122.0.0.0 Safari/537.36" etag="xQ4NDlvsH2dstNXSIMBh" version="24.0.7" type="github">
  <diagram name="Page-1" id="smKnWHRz4qsbSOYvm4Vb">
    <mxGraphModel dx="880" dy="468" grid="1" gridSize="10" guides="1" tooltips="1" connect="1" arrows="1" fold="1" page="1" pageScale="1" pageWidth="850" pageHeight="1100" math="0" shadow="0">
      <root>
        <mxCell id="0" />
        <mxCell id="1" parent="0" />
        <mxCell id="SckOknjRR2yDQohT69vz-1" value="Admin" style="shape=umlActor;verticalLabelPosition=bottom;verticalAlign=top;html=1;outlineConnect=0;" vertex="1" parent="1">
          <mxGeometry x="150" y="210" width="30" height="60" as="geometry" />
        </mxCell>
        <mxCell id="SckOknjRR2yDQohT69vz-3" value="Tracking Lokasi Bus" style="ellipse;whiteSpace=wrap;html=1;" vertex="1" parent="1">
          <mxGeometry x="240" y="100" width="120" height="80" as="geometry" />
        </mxCell>
        <mxCell id="SckOknjRR2yDQohT69vz-5" value="" style="endArrow=classic;html=1;rounded=0;" edge="1" parent="1" target="SckOknjRR2yDQohT69vz-3">
          <mxGeometry width="50" height="50" relative="1" as="geometry">
            <mxPoint x="165" y="210" as="sourcePoint" />
            <mxPoint x="450" y="220" as="targetPoint" />
            <Array as="points">
              <mxPoint x="165" y="140" />
            </Array>
          </mxGeometry>
        </mxCell>
        <mxCell id="SckOknjRR2yDQohT69vz-6" value="Monitoring Dashboard" style="ellipse;whiteSpace=wrap;html=1;" vertex="1" parent="1">
          <mxGeometry x="240" y="200" width="120" height="80" as="geometry" />
        </mxCell>
        <mxCell id="SckOknjRR2yDQohT69vz-7" value="Melihat Data Bus" style="ellipse;whiteSpace=wrap;html=1;" vertex="1" parent="1">
          <mxGeometry x="240" y="300" width="120" height="80" as="geometry" />
        </mxCell>
        <mxCell id="SckOknjRR2yDQohT69vz-8" value="" style="endArrow=classic;html=1;rounded=0;exitX=0.5;exitY=0.5;exitDx=0;exitDy=0;exitPerimeter=0;entryX=0;entryY=0.5;entryDx=0;entryDy=0;" edge="1" parent="1" source="SckOknjRR2yDQohT69vz-1" target="SckOknjRR2yDQohT69vz-6">
          <mxGeometry width="50" height="50" relative="1" as="geometry">
            <mxPoint x="175" y="250" as="sourcePoint" />
            <mxPoint x="296" y="177" as="targetPoint" />
          </mxGeometry>
        </mxCell>
        <mxCell id="SckOknjRR2yDQohT69vz-10" value="" style="endArrow=classic;html=1;rounded=0;" edge="1" parent="1" target="SckOknjRR2yDQohT69vz-7">
          <mxGeometry width="50" height="50" relative="1" as="geometry">
            <mxPoint x="165" y="290" as="sourcePoint" />
            <mxPoint x="280" y="250" as="targetPoint" />
            <Array as="points">
              <mxPoint x="165" y="340" />
            </Array>
          </mxGeometry>
        </mxCell>
        <mxCell id="SckOknjRR2yDQohT69vz-11" value="Supir" style="shape=umlActor;verticalLabelPosition=bottom;verticalAlign=top;html=1;outlineConnect=0;" vertex="1" parent="1">
          <mxGeometry x="390" y="210" width="30" height="60" as="geometry" />
        </mxCell>
        <mxCell id="SckOknjRR2yDQohT69vz-12" value="Melihat Daftar Notifikasi Alert" style="ellipse;whiteSpace=wrap;html=1;" vertex="1" parent="1">
          <mxGeometry x="480" y="100" width="120" height="80" as="geometry" />
        </mxCell>
        <mxCell id="SckOknjRR2yDQohT69vz-13" value="" style="endArrow=classic;html=1;rounded=0;" edge="1" parent="1" target="SckOknjRR2yDQohT69vz-12">
          <mxGeometry width="50" height="50" relative="1" as="geometry">
            <mxPoint x="405" y="210" as="sourcePoint" />
            <mxPoint x="690" y="220" as="targetPoint" />
            <Array as="points">
              <mxPoint x="405" y="140" />
            </Array>
          </mxGeometry>
        </mxCell>
        <mxCell id="SckOknjRR2yDQohT69vz-14" value="Deteksi Gerakan Kepala" style="ellipse;whiteSpace=wrap;html=1;" vertex="1" parent="1">
          <mxGeometry x="480" y="200" width="120" height="80" as="geometry" />
        </mxCell>
        <mxCell id="SckOknjRR2yDQohT69vz-15" value="Melihat Data Bus" style="ellipse;whiteSpace=wrap;html=1;" vertex="1" parent="1">
          <mxGeometry x="480" y="300" width="120" height="80" as="geometry" />
        </mxCell>
        <mxCell id="SckOknjRR2yDQohT69vz-16" value="" style="endArrow=classic;html=1;rounded=0;exitX=0.5;exitY=0.5;exitDx=0;exitDy=0;exitPerimeter=0;entryX=0;entryY=0.5;entryDx=0;entryDy=0;" edge="1" parent="1" source="SckOknjRR2yDQohT69vz-11" target="SckOknjRR2yDQohT69vz-14">
          <mxGeometry width="50" height="50" relative="1" as="geometry">
            <mxPoint x="415" y="250" as="sourcePoint" />
            <mxPoint x="536" y="177" as="targetPoint" />
          </mxGeometry>
        </mxCell>
        <mxCell id="SckOknjRR2yDQohT69vz-17" value="" style="endArrow=classic;html=1;rounded=0;" edge="1" parent="1" target="SckOknjRR2yDQohT69vz-15">
          <mxGeometry width="50" height="50" relative="1" as="geometry">
            <mxPoint x="405" y="290" as="sourcePoint" />
            <mxPoint x="520" y="250" as="targetPoint" />
            <Array as="points">
              <mxPoint x="405" y="340" />
            </Array>
          </mxGeometry>
        </mxCell>
      </root>
    </mxGraphModel>
  </diagram>
</mxfile>
